<svg xmlns="http://www.w3.org/2000/svg" viewBox="0 0 108 108" width="216" height="216">
  <title>Project Mesh</title>
  <defs>
    <clipPath id="circle-clip">
      <circle cx="54" cy="54" r="54" />
    </clipPath>
  </defs>
  <g clip-path="url(#circle-clip)">
    <rect x="0" y="0" width="108" height="36" fill="#FF9933" />
    <rect x="0" y="36" width="108" height="36" fill="#FFFFFF" />
    <rect x="0" y="72" width="108" height="36" fill="#138808" />
  </g>
  <circle cx="54" cy="54" r="30" fill="#FFFFFF" />
  <polygon
    points="78,54 70.97,37.03 54,30 37.03,37.03 30,54 37.03,70.97 54,78 70.97,70.97"
    fill="none" stroke="#16205E" stroke-width="2.2" />
  <g stroke="#16205E" stroke-width="2.2">
    <line x1="54" y1="54" x2="78" y2="54" />
    <line x1="54" y1="54" x2="70.97" y2="37.03" />
    <line x1="54" y1="54" x2="54" y2="30" />
    <line x1="54" y1="54" x2="37.03" y2="37.03" />
    <line x1="54" y1="54" x2="30" y2="54" />
    <line x1="54" y1="54" x2="37.03" y2="70.97" />
    <line x1="54" y1="54" x2="54" y2="78" />
    <line x1="54" y1="54" x2="70.97" y2="70.97" />
  </g>
  <circle cx="54" cy="54" r="7" fill="#16205E" />
  <g fill="#16205E">
    <circle cx="78" cy="54" r="4.5" />
    <circle cx="70.97" cy="37.03" r="4.5" />
    <circle cx="54" cy="30" r="4.5" />
    <circle cx="37.03" cy="37.03" r="4.5" />
    <circle cx="30" cy="54" r="4.5" />
    <circle cx="37.03" cy="70.97" r="4.5" />
    <circle cx="54" cy="78" r="4.5" />
    <circle cx="70.97" cy="70.97" r="4.5" />
  </g>
</svg>
